# xmcd
#
# Track frame offsets: 
#        150
#        13515
#        29594
#        44360
#        68131
#        88236
#        106059
#        123355
#        137078
#        155238
#        178537
#        202720
#        230818
#        250116
#        266731
#        283115
#
# Disc length: 4297 seconds
#
# Revision: 4
# Processed by: cddbd v1.5.2PL0 Copyright (c) Steve Scherf et al.
# Submitted via: ExactAudioCopyFreeDBPlugin 1.0
#
DISCID=e410c710
DTITLE=Keiko Lee - Voices Again
DYEAR=2005
DGENRE=Jazz
TTITLE0=You'd Be So Nice To Come Home To
TTITLE1=Night And Day
TTITLE2=Beautiful Love
TTITLE3=If It's Love
TTITLE4=Rainy Days And Mondays
TTITLE5=Waltz For Debby
TTITLE6=Tennessee Waltz
TTITLE7=We Will Rock You
TTITLE8=Route 66
TTITLE9=This Masquerade
TTITLE10=But Beautiful
TTITLE11=The Wonder Of Love
TTITLE12=The Flame
TTITLE13=Time After Time
TTITLE14=Stand By Me
TTITLE15=Imagine
EXTD=YEAR: 2005
EXTT0=
EXTT1=
EXTT2=
EXTT3=
EXTT4=
EXTT5=
EXTT6=
EXTT7=
EXTT8=
EXTT9=
EXTT10=
EXTT11=
EXTT12=
EXTT13=
EXTT14=
EXTT15=
PLAYORDER=
